<mxfile host="app.diagrams.net" modified="2022-07-28T02:07:22.630Z" agent="5.0 (Macintosh; Intel Mac OS X 10_15_7) AppleWebKit/537.36 (KHTML, like Gecko) Chrome/103.0.5060.134 Safari/537.36" etag="fZZ305yPypcrHwdLggsf" version="20.2.2" type="github">
  <diagram id="ljMTWfIX8xMNHQRcq2VL" name="Page-1">
    <mxGraphModel dx="823" dy="470" grid="1" gridSize="10" guides="1" tooltips="1" connect="1" arrows="1" fold="1" page="1" pageScale="1" pageWidth="850" pageHeight="1100" math="0" shadow="0">
      <root>
        <mxCell id="0" />
        <mxCell id="1" parent="0" />
        <mxCell id="oLImu17INOe9Grbym7r0-2" value="" style="group;rounded=0;labelBackgroundColor=none;fontFamily=Helvetica;fontSize=14;fontColor=none;strokeColor=none;fillColor=none;align=left;html=1;" vertex="1" connectable="0" parent="1">
          <mxGeometry x="75" y="50" width="700" height="440" as="geometry" />
        </mxCell>
        <mxCell id="oLImu17INOe9Grbym7r0-3" value="" style="rounded=1;whiteSpace=wrap;html=1;fillColor=default;strokeColor=#ffaa9c;fontFamily=Helvetica;fontSize=12;fontColor=#000000;align=left;labelBackgroundColor=none;connectable=0;container=0;allowArrows=0;" vertex="1" parent="oLImu17INOe9Grbym7r0-2">
          <mxGeometry y="40" width="700" height="400" as="geometry" />
        </mxCell>
        <mxCell id="oLImu17INOe9Grbym7r0-4" value="&lt;span style=&quot;font-size: 30px;&quot;&gt;Furniture Game Design&lt;/span&gt;" style="text;html=1;align=center;verticalAlign=middle;resizable=0;points=[];autosize=1;strokeColor=none;fillColor=none;fontSize=12;fontFamily=Helvetica;fontColor=#fe5535;rounded=0;labelBackgroundColor=none;connectable=0;allowArrows=0;" vertex="1" parent="oLImu17INOe9Grbym7r0-2">
          <mxGeometry x="180" y="-10" width="340" height="50" as="geometry" />
        </mxCell>
        <mxCell id="oLImu17INOe9Grbym7r0-5" value="&lt;b&gt;flowcard &lt;/b&gt;Game(player: Address, ID: Token, ERG, txFee: ERG)" style="text;html=1;align=center;verticalAlign=middle;resizable=0;points=[];autosize=1;strokeColor=none;fillColor=none;fontSize=12;fontFamily=Helvetica;fontColor=#000000;rounded=0;labelBackgroundColor=none;connectable=0;allowArrows=0;" vertex="1" parent="oLImu17INOe9Grbym7r0-2">
          <mxGeometry x="170" y="45" width="360" height="30" as="geometry" />
        </mxCell>
        <mxCell id="oLImu17INOe9Grbym7r0-14" value="" style="group;allowArrows=0;connectable=0;rounded=1;labelBackgroundColor=none;fontFamily=Helvetica;fontSize=14;fontColor=none;strokeColor=none;fillColor=none;align=left;html=1;" vertex="1" connectable="0" parent="oLImu17INOe9Grbym7r0-2">
          <mxGeometry x="15" y="95" width="155" height="290" as="geometry" />
        </mxCell>
        <mxCell id="oLImu17INOe9Grbym7r0-15" value="&lt;div&gt;&lt;font style=&quot;font-size: 15px;&quot;&gt;pk(player)&lt;/font&gt;&lt;/div&gt;" style="rounded=1;whiteSpace=wrap;html=1;fontFamily=Helvetica;fontSize=12;strokeColor=none;fillColor=#ffe4e0;fontColor=#000000;align=left;container=0;labelBackgroundColor=none;allowArrows=0;connectable=0;verticalAlign=top;spacingLeft=5;" vertex="1" parent="oLImu17INOe9Grbym7r0-14">
          <mxGeometry y="30" width="155" height="260" as="geometry" />
        </mxCell>
        <mxCell id="oLImu17INOe9Grbym7r0-17" value="" style="group;rounded=1;fontFamily=Helvetica;fontSize=12;fontColor=#000000;strokeColor=none;fillColor=none;align=left;labelBackgroundColor=none;html=1;allowArrows=0;" vertex="1" connectable="0" parent="oLImu17INOe9Grbym7r0-14">
          <mxGeometry x="28.18181818181818" y="60" width="120" height="98.75" as="geometry" />
        </mxCell>
        <mxCell id="oLImu17INOe9Grbym7r0-18" value="&lt;div style=&quot;font-size: 12px&quot; align=&quot;left&quot;&gt;ERG&lt;/div&gt;&lt;div style=&quot;font-size: 12px&quot;&gt;&lt;br&gt;&lt;/div&gt;" style="rounded=1;whiteSpace=wrap;html=1;fontFamily=Helvetica;fontSize=24;fontColor=#000000;strokeColor=none;fillColor=#ffaa9b;align=left;labelBackgroundColor=none;allowArrows=0;verticalAlign=top;spacingLeft=5;" vertex="1" parent="oLImu17INOe9Grbym7r0-17">
          <mxGeometry x="-20" y="22.5" width="140" height="27.5" as="geometry" />
        </mxCell>
        <mxCell id="oLImu17INOe9Grbym7r0-58" value="&lt;div style=&quot;font-size: 12px&quot; align=&quot;left&quot;&gt;Token&lt;/div&gt;" style="rounded=1;whiteSpace=wrap;html=1;fontFamily=Helvetica;fontSize=24;fontColor=#000000;strokeColor=none;fillColor=#ffaa9b;align=left;labelBackgroundColor=none;allowArrows=0;verticalAlign=top;spacingLeft=5;" vertex="1" parent="oLImu17INOe9Grbym7r0-14">
          <mxGeometry x="7.50181818181818" y="177.5" width="140" height="27.5" as="geometry" />
        </mxCell>
        <mxCell id="oLImu17INOe9Grbym7r0-69" value="&lt;span style=&quot;font-size: 11px;&quot;&gt;balance&lt;/span&gt;" style="text;html=1;align=left;verticalAlign=middle;resizable=0;points=[];autosize=1;strokeColor=none;fillColor=none;fontSize=12;fontFamily=Helvetica;fontColor=#ff5536;rounded=0;labelBackgroundColor=none;allowArrows=0;connectable=0;" vertex="1" parent="oLImu17INOe9Grbym7r0-14">
          <mxGeometry x="7.501818181818187" y="155" width="60" height="30" as="geometry" />
        </mxCell>
        <mxCell id="oLImu17INOe9Grbym7r0-70" value="" style="group;rounded=1;fontFamily=Helvetica;fontSize=12;fontColor=#000000;strokeColor=none;fillColor=none;align=left;labelBackgroundColor=none;html=1;allowArrows=0;" vertex="1" connectable="0" parent="oLImu17INOe9Grbym7r0-14">
          <mxGeometry x="27.50181818181818" y="105.63" width="120" height="98.75" as="geometry" />
        </mxCell>
        <mxCell id="oLImu17INOe9Grbym7r0-71" value="&lt;div style=&quot;font-size: 12px&quot; align=&quot;left&quot;&gt;ERG - txFee&lt;/div&gt;&lt;div style=&quot;font-size: 12px&quot;&gt;&lt;br&gt;&lt;/div&gt;" style="rounded=1;whiteSpace=wrap;html=1;fontFamily=Helvetica;fontSize=24;fontColor=#000000;strokeColor=none;fillColor=#ffaa9b;align=left;labelBackgroundColor=none;allowArrows=0;verticalAlign=top;spacingLeft=5;" vertex="1" parent="oLImu17INOe9Grbym7r0-70">
          <mxGeometry x="-20" y="22.5" width="140" height="27.5" as="geometry" />
        </mxCell>
        <mxCell id="oLImu17INOe9Grbym7r0-72" value="&lt;span style=&quot;font-size: 11px;&quot;&gt;change&lt;/span&gt;" style="text;html=1;align=left;verticalAlign=middle;resizable=0;points=[];autosize=1;strokeColor=none;fillColor=none;fontSize=12;fontFamily=Helvetica;fontColor=#ff5536;rounded=0;labelBackgroundColor=none;allowArrows=0;connectable=0;" vertex="1" parent="oLImu17INOe9Grbym7r0-14">
          <mxGeometry x="7.50181818181818" y="105.63" width="60" height="30" as="geometry" />
        </mxCell>
        <mxCell id="oLImu17INOe9Grbym7r0-21" value="Create &lt;br&gt;Account" style="rounded=0;whiteSpace=wrap;html=1;fontFamily=Helvetica;fontSize=14;fontColor=#FFFFFF;strokeColor=none;fillColor=#9f9f9f;align=center;" vertex="1" parent="oLImu17INOe9Grbym7r0-2">
          <mxGeometry x="205.0000000000001" y="136.25" width="100" height="50" as="geometry" />
        </mxCell>
        <mxCell id="oLImu17INOe9Grbym7r0-22" style="edgeStyle=orthogonalEdgeStyle;rounded=0;orthogonalLoop=1;jettySize=auto;html=1;exitX=1;exitY=0.5;exitDx=0;exitDy=0;entryX=0;entryY=0.5;entryDx=0;entryDy=0;fontSize=10;fillColor=#d5e8d4;strokeColor=#A9D08E;strokeWidth=3;endArrow=block;endFill=1;" edge="1" parent="oLImu17INOe9Grbym7r0-2" source="oLImu17INOe9Grbym7r0-18" target="oLImu17INOe9Grbym7r0-21">
          <mxGeometry relative="1" as="geometry" />
        </mxCell>
        <mxCell id="oLImu17INOe9Grbym7r0-48" value="" style="group;allowArrows=0;rounded=1;fontSize=10;" vertex="1" connectable="0" parent="oLImu17INOe9Grbym7r0-2">
          <mxGeometry x="325" y="75" width="220" height="140" as="geometry" />
        </mxCell>
        <mxCell id="oLImu17INOe9Grbym7r0-49" value="&lt;div&gt;&lt;font style=&quot;font-size: 15px;&quot;&gt;createBox&lt;/font&gt;&lt;/div&gt;" style="rounded=1;whiteSpace=wrap;html=1;fontFamily=Helvetica;fontSize=12;strokeColor=none;fillColor=#ffe4e0;fontColor=#000000;align=left;container=0;labelBackgroundColor=none;allowArrows=0;connectable=0;verticalAlign=top;spacingLeft=5;" vertex="1" parent="oLImu17INOe9Grbym7r0-48">
          <mxGeometry width="220" height="140" as="geometry" />
        </mxCell>
        <mxCell id="oLImu17INOe9Grbym7r0-52" value="&lt;font style=&quot;font-size: 11px;&quot;&gt;make game box&lt;/font&gt;" style="text;html=1;align=left;verticalAlign=middle;resizable=0;points=[];autosize=1;strokeColor=none;fillColor=none;fontSize=12;fontFamily=Helvetica;fontColor=#ff5536;rounded=0;labelBackgroundColor=none;allowArrows=0;connectable=0;" vertex="1" parent="oLImu17INOe9Grbym7r0-48">
          <mxGeometry x="25" y="27.5" width="100" height="30" as="geometry" />
        </mxCell>
        <mxCell id="oLImu17INOe9Grbym7r0-51" value="&lt;div style=&quot;font-size: 12px&quot; align=&quot;left&quot;&gt;&lt;span style=&quot;background-color: initial;&quot;&gt;ID: Token&lt;/span&gt;&lt;br&gt;&lt;/div&gt;&lt;div style=&quot;font-size: 12px&quot; align=&quot;left&quot;&gt;&lt;font style=&quot;font-size: 12px&quot; color=&quot;#000000&quot;&gt;R4 = Unique Identifier&lt;/font&gt;&lt;/div&gt;&lt;div style=&quot;font-size: 12px&quot; align=&quot;left&quot;&gt;&lt;font style=&quot;font-size: 12px&quot; color=&quot;#000000&quot;&gt;R5-R9 = Account Data&lt;/font&gt;&lt;/div&gt;&lt;div&gt;&lt;br&gt;&lt;/div&gt;&lt;div style=&quot;font-size: 12px&quot;&gt;&lt;br&gt;&lt;/div&gt;" style="rounded=1;whiteSpace=wrap;html=1;fontFamily=Helvetica;fontSize=24;fontColor=#000000;strokeColor=none;fillColor=#ffaa9b;align=left;labelBackgroundColor=none;allowArrows=0;verticalAlign=top;spacingLeft=5;" vertex="1" parent="oLImu17INOe9Grbym7r0-48">
          <mxGeometry x="20" y="52.5" width="180" height="67.5" as="geometry" />
        </mxCell>
        <mxCell id="oLImu17INOe9Grbym7r0-53" style="edgeStyle=orthogonalEdgeStyle;rounded=0;orthogonalLoop=1;jettySize=auto;html=1;exitX=1;exitY=0.5;exitDx=0;exitDy=0;fontSize=11;endArrow=block;endFill=1;strokeWidth=3;entryX=0;entryY=0.5;entryDx=0;entryDy=0;fillColor=#d5e8d4;strokeColor=#A9D08E;" edge="1" parent="oLImu17INOe9Grbym7r0-2" source="oLImu17INOe9Grbym7r0-21" target="oLImu17INOe9Grbym7r0-51">
          <mxGeometry relative="1" as="geometry">
            <mxPoint x="335" y="250" as="targetPoint" />
          </mxGeometry>
        </mxCell>
        <mxCell id="oLImu17INOe9Grbym7r0-57" value="" style="edgeStyle=orthogonalEdgeStyle;rounded=0;orthogonalLoop=1;jettySize=auto;html=1;fontSize=11;endArrow=block;endFill=1;strokeWidth=3;entryX=0.991;entryY=0.515;entryDx=0;entryDy=0;entryPerimeter=0;fillColor=#ffe6cc;strokeColor=#EE7E34;" edge="1" parent="oLImu17INOe9Grbym7r0-2" source="oLImu17INOe9Grbym7r0-54" target="oLImu17INOe9Grbym7r0-58">
          <mxGeometry relative="1" as="geometry">
            <mxPoint x="165" y="255" as="targetPoint" />
          </mxGeometry>
        </mxCell>
        <mxCell id="oLImu17INOe9Grbym7r0-54" value="Return&lt;br&gt;Account&lt;br&gt;Box" style="rounded=0;whiteSpace=wrap;html=1;fontFamily=Helvetica;fontSize=14;fontColor=#FFFFFF;strokeColor=none;fillColor=#9f9f9f;align=center;" vertex="1" parent="oLImu17INOe9Grbym7r0-2">
          <mxGeometry x="385" y="256.25" width="100" height="60" as="geometry" />
        </mxCell>
        <mxCell id="oLImu17INOe9Grbym7r0-56" style="edgeStyle=orthogonalEdgeStyle;rounded=0;orthogonalLoop=1;jettySize=auto;html=1;exitX=0.5;exitY=1;exitDx=0;exitDy=0;entryX=0.5;entryY=0;entryDx=0;entryDy=0;fontSize=11;endArrow=block;endFill=1;strokeWidth=3;fillColor=#ffe6cc;strokeColor=#EE7E34;" edge="1" parent="oLImu17INOe9Grbym7r0-2" source="oLImu17INOe9Grbym7r0-51" target="oLImu17INOe9Grbym7r0-54">
          <mxGeometry relative="1" as="geometry">
            <Array as="points">
              <mxPoint x="435" y="200" />
              <mxPoint x="435" y="200" />
            </Array>
          </mxGeometry>
        </mxCell>
        <mxCell id="oLImu17INOe9Grbym7r0-16" value="&lt;div align=&quot;left&quot;&gt;&lt;font style=&quot;font-size: 21px;&quot;&gt;Alice&#39;s Wallet&lt;/font&gt;&lt;br&gt;&lt;/div&gt;" style="text;html=1;align=center;verticalAlign=middle;resizable=0;points=[];autosize=1;strokeColor=none;fillColor=none;fontSize=12;fontFamily=Helvetica;fontColor=#000000;rounded=0;container=0;labelBackgroundColor=none;connectable=0;allowArrows=0;" vertex="1" parent="oLImu17INOe9Grbym7r0-2">
          <mxGeometry x="14.999090909090906" y="95" width="150" height="40" as="geometry" />
        </mxCell>
        <mxCell id="oLImu17INOe9Grbym7r0-75" value="" style="group;rounded=1;fontSize=11;" vertex="1" connectable="0" parent="oLImu17INOe9Grbym7r0-2">
          <mxGeometry x="545" y="295" width="120" height="90" as="geometry" />
        </mxCell>
        <mxCell id="oLImu17INOe9Grbym7r0-76" value="minerFee" style="rounded=0;whiteSpace=wrap;html=1;fontFamily=Helvetica;fontSize=12;strokeColor=none;fillColor=#ffe4e0;fontColor=#000000;align=left;container=0;labelBackgroundColor=none;connectable=0;allowArrows=0;verticalAlign=top;spacing=2;spacingLeft=5;" vertex="1" parent="oLImu17INOe9Grbym7r0-75">
          <mxGeometry width="120" height="90" as="geometry" />
        </mxCell>
        <mxCell id="oLImu17INOe9Grbym7r0-77" value="" style="group;allowArrows=0;rounded=1;fontSize=11;" vertex="1" connectable="0" parent="oLImu17INOe9Grbym7r0-75">
          <mxGeometry x="15" y="32.5" width="90" height="47.5" as="geometry" />
        </mxCell>
        <mxCell id="oLImu17INOe9Grbym7r0-78" value="&lt;div style=&quot;font-size: 12px&quot;&gt;&lt;font style=&quot;font-size: 12px&quot; color=&quot;#000000&quot;&gt;txFee: ERG&lt;/font&gt;&lt;/div&gt;" style="rounded=0;whiteSpace=wrap;html=1;fontFamily=Helvetica;fontSize=24;fontColor=#000000;strokeColor=none;fillColor=#ffaa9b;align=left;container=0;labelBackgroundColor=none;allowArrows=0;verticalAlign=top;spacingLeft=5;" vertex="1" parent="oLImu17INOe9Grbym7r0-77">
          <mxGeometry y="20" width="90" height="27.5" as="geometry" />
        </mxCell>
        <mxCell id="oLImu17INOe9Grbym7r0-79" value="fee" style="text;html=1;align=left;verticalAlign=middle;resizable=0;points=[];autosize=1;strokeColor=none;fillColor=none;fontSize=12;fontFamily=Helvetica;fontColor=#ff5536;rounded=0;container=0;labelBackgroundColor=none;connectable=0;allowArrows=0;" vertex="1" parent="oLImu17INOe9Grbym7r0-77">
          <mxGeometry width="30" height="20" as="geometry" />
        </mxCell>
        <mxCell id="oLImu17INOe9Grbym7r0-74" style="edgeStyle=orthogonalEdgeStyle;rounded=0;orthogonalLoop=1;jettySize=auto;html=1;exitX=0.5;exitY=1;exitDx=0;exitDy=0;fontSize=11;endArrow=block;endFill=1;strokeColor=#A9D08E;strokeWidth=3;" edge="1" parent="oLImu17INOe9Grbym7r0-2" source="oLImu17INOe9Grbym7r0-21">
          <mxGeometry relative="1" as="geometry">
            <mxPoint x="555" y="360" as="targetPoint" />
            <Array as="points">
              <mxPoint x="255" y="360" />
            </Array>
          </mxGeometry>
        </mxCell>
        <mxCell id="oLImu17INOe9Grbym7r0-81" style="edgeStyle=orthogonalEdgeStyle;rounded=0;orthogonalLoop=1;jettySize=auto;html=1;fontSize=11;endArrow=block;endFill=1;strokeColor=#A9D08E;strokeWidth=3;entryX=1;entryY=0.5;entryDx=0;entryDy=0;" edge="1" parent="oLImu17INOe9Grbym7r0-2" source="oLImu17INOe9Grbym7r0-21" target="oLImu17INOe9Grbym7r0-71">
          <mxGeometry relative="1" as="geometry">
            <mxPoint x="225" y="270" as="targetPoint" />
            <Array as="points">
              <mxPoint x="255" y="237" />
            </Array>
          </mxGeometry>
        </mxCell>
        <mxCell id="oLImu17INOe9Grbym7r0-19" value="&lt;span style=&quot;font-size: 11px;&quot;&gt;balance&lt;/span&gt;" style="text;html=1;align=left;verticalAlign=middle;resizable=0;points=[];autosize=1;strokeColor=none;fillColor=none;fontSize=12;fontFamily=Helvetica;fontColor=#ff5536;rounded=0;labelBackgroundColor=none;allowArrows=0;connectable=0;" vertex="1" parent="1">
          <mxGeometry x="98.18181818181819" y="205" width="60" height="30" as="geometry" />
        </mxCell>
      </root>
    </mxGraphModel>
  </diagram>
</mxfile>
